<?xml version="1.0" standalone="no"?>
<svg xmlns="http://www.w3.org/2000/svg" version="1.0" width="1784" height="360" viewBox="0 0 1784 360" preserveAspectRatio="xMinYMid meet">
  <defs>
    <style>
      @import url('https://fonts.googleapis.com/css2?family=Montserrat:wght@300&amp;display=swap');
      .pt {
        font-family: 'Montserrat', sans-serif;
        font-size: 65px;
        font-weight: 300;
        fill: white;
        letter-spacing: 0.35em;
        text-transform: uppercase;
        opacity: 0.62;
      }
    </style>
  </defs>
<g transform="translate(0.000000,244.000000) scale(0.100000,-0.100000)" fill="#000000" stroke="none">
<path d="M0 1220 l0 -1220 8920 0 8920 0 0 1220 0 1220 -8920 0 -8920 0 0 -1220z m193 1080 c9 -19 56 -138 103 -265 92 -247 264 -703 321 -850 19 -49 91 -245 160 -435 69 -190 137 -376 150 -413 14 -38 29 -65 33 -60 4 4 13 26 20 48 15 50 376 992 555 1450 72 187 147 381 165 430 18 50 37 94 41 99 8 9 109 10 117 1 2 -2 8 -293 12 -647 5 -353 12 -844 16 -1091 l7 -447 -57 0 -56 0 2 1015 c3 837 1 1012 -10 1001 -7 -7 -28 -58 -46 -112 -19 -54 -41 -119 -51 -144 -9 -25 -25 -67 -35 -95 -84 -228 -168 -447 -327 -855 -102 -261 -213 -545 -246 -630 -33 -85 -64 -161 -70 -167 -17 -22 -75 -16 -91 9 -33 52 -578 1513 -671 1798 -75 231 -76 231 -68 -20 5 -118 8 -570 8 -1005 l0 -790 -45 0 -45 0 -3 1108 -2 1108 47 -3 c44 -3 50 -6 66 -38z m6367 -22 c11 -24 70 -176 131 -338 121 -323 237 -629 275 -729 54 -138 214 -572 254 -686 71 -204 92 -257 100 -248 5 4 24 53 43 108 19 55 98 262 174 460 77 198 231 599 343 890 122 319 211 537 223 548 14 12 33 17 61 15 37 -3 41 -6 47 -38 4 -19 9 -372 13 -785 3 -412 9 -886 13 -1051 l6 -302 -49 -4 c-27 -3 -52 -2 -57 2 -4 3 -6 455 -5 1003 2 548 -1 997 -5 997 -4 0 -10 -6 -12 -12 -43 -126 -165 -464 -203 -563 -79 -206 -374 -964 -544 -1398 -10 -25 -15 -28 -52 -25 -36 3 -43 7 -59 40 -20 40 -364 951 -489 1293 -87 238 -137 383 -188 540 -37 116 -56 146 -45 70 12 -80 22 -1929 10 -1937 -5 -4 -29 -8 -52 -8 l-43 0 0 1090 0 1091 23 9 c48 19 66 12 87 -32z m-3622 20 c11 -14 49 -115 185 -483 132 -355 183 -496 252 -680 35 -93 116 -312 179 -485 64 -173 132 -355 151 -403 47 -119 47 -127 -10 -127 -55 0 -39 -32 -185 365 -61 165 -128 345 -150 400 -21 55 -46 123 -54 151 -9 27 -72 196 -141 375 -69 178 -155 417 -192 531 -38 114 -70 208 -73 208 -3 0 -29 -75 -58 -165 -29 -91 -109 -313 -178 -493 -69 -180 -140 -370 -156 -422 -17 -52 -37 -107 -45 -122 -12 -25 -105 -273 -239 -643 -30 -82 -58 -157 -63 -165 -9 -17 -89 -26 -103 -12 -5 5 0 29 12 58 12 27 91 236 176 464 86 228 193 514 239 635 142 377 334 894 355 958 6 20 18 44 27 52 18 18 57 20 71 3z m1134 0 c17 -15 234 -363 534 -857 35 -57 66 -106 68 -109 5 -5 287 419 508 763 l135 210 61 0 c33 0 64 -3 67 -7 4 -4 -8 -26 -26 -49 -19 -24 -70 -97 -114 -165 -111 -169 -486 -728 -530 -790 l-36 -50 58 -92 c76 -120 522 -814 591 -920 31 -47 52 -89 48 -97 -6 -15 -69 -21 -100 -9 -9 3 -82 110 -163 238 -80 127 -217 339 -303 471 -86 132 -164 252 -173 268 -10 15 -21 27 -26 27 -5 0 -24 -26 -41 -57 -18 -32 -106 -175 -195 -318 -89 -143 -210 -341 -270 -440 -60 -99 -113 -183 -119 -187 -6 -4 -37 -8 -68 -8 -64 0 -71 10 -40 51 10 13 83 128 164 254 80 127 208 329 285 450 77 121 153 242 169 268 16 26 35 58 43 70 13 21 8 32 -66 152 -44 72 -115 184 -158 250 -43 66 -157 245 -253 399 -136 216 -172 280 -161 287 21 13 93 11 111 -3z m4548 -1082 l0 -1093 -36 -6 c-70 -12 -64 -108 -64 1092 0 598 3 1091 7 1094 3 4 26 7 50 7 l43 0 0 -1094z m336 1086 c10 -7 137 -197 749 -1122 404 -610 461 -701 525 -835 17 -36 34 -65 38 -65 4 0 4 53 1 117 -3 65 -6 513 -7 997 -2 644 1 882 9 892 6 8 29 14 50 14 l38 0 3 -987 c2 -544 2 -1034 0 -1090 l-3 -103 -50 0 -49 0 -194 292 c-673 1015 -959 1458 -1042 1614 l-49 91 0 -996 0 -996 -47 -3 -48 -3 0 1083 c0 830 3 1087 12 1096 13 13 47 16 64 4z m1749 -30 c11 -18 151 -230 310 -470 759 -1143 881 -1333 941 -1469 13 -29 27 -53 31 -53 5 0 5 53 2 117 -17 358 -14 1878 3 1901 12 14 74 17 82 3 4 -6 8 -1296 6 -2083 l0 -98 -50 0 -50 0 -253 383 c-140 210 -287 434 -329 497 -41 63 -154 234 -250 380 -218 331 -342 529 -404 646 l-49 91 3 -997 4 -997 -37 -6 c-20 -3 -43 -3 -51 0 -12 4 -14 154 -14 1087 0 850 3 1085 12 1094 23 23 71 10 93 -26z m1724 32 l31 -6 0 -1089 0 -1088 -35 -7 c-71 -13 -65 -111 -65 1094 0 599 3 1092 7 1095 8 9 22 9 62 1z m375 -7 c17 -13 18 -62 14 -1014 l-3 -1000 46 86 c93 176 101 189 936 1449 151 227 281 429 290 447 13 26 25 36 50 41 69 13 63 109 61 -1093 l-3 -1088 -48 -3 -49 -3 4 1000 c2 551 2 1001 1 1001 -2 0 -23 -40 -47 -89 -52 -102 -112 -202 -253 -421 -170 -263 -964 -1464 -977 -1478 -7 -7 -32 -14 -57 -15 l-44 -2 -3 1085 c-1 597 0 1091 3 1098 6 16 56 16 79 -1z m1720 0 c17 -12 18 -63 14 -1014 l-3 -1000 46 86 c94 178 183 317 925 1432 167 251 304 461 304 467 0 33 92 57 103 27 5 -11 10 -1620 8 -2087 l-1 -88 -51 0 -50 0 3 995 c2 547 1 995 -2 995 -3 0 -16 -24 -29 -52 -13 -29 -59 -111 -102 -183 -97 -161 -238 -379 -815 -1251 -316 -478 -333 -502 -366 -508 -74 -14 -68 -117 -68 1093 0 598 3 1091 7 1094 11 12 58 8 77 -6z m2470 -30 c8 -12 41 -92 72 -177 31 -85 74 -200 94 -255 56 -147 198 -533 307 -830 52 -143 130 -357 174 -475 44 -118 93 -252 110 -298 17 -46 28 -90 25 -98 -8 -20 -60 -18 -78 4 -8 9 -22 37 -31 62 -35 97 -300 812 -347 935 -185 489 -313 850 -346 973 -8 31 -23 2 -68 -135 -27 -82 -98 -278 -158 -438 -149 -390 -154 -404 -197 -525 -21 -58 -91 -249 -156 -425 -65 -176 -127 -347 -138 -380 -26 -79 -32 -85 -84 -85 -53 0 -56 -19 22 180 31 80 97 255 147 390 49 135 139 378 200 540 276 741 358 961 358 964 0 3 9 25 20 50 22 52 50 61 74 23z"/>
</g>
  <text x="50" y="310" class="pt">PORTFOLIO MMXXVI</text>
</svg>
