<svg version="1.1" id="Layer_1" xmlns="http://www.w3.org/2000/svg" xmlns:xlink="http://www.w3.org/1999/xlink" x="0px" y="0px"
	 width="100%" viewBox="0 0 2080 1859" enable-background="new 0 0 2080 1859" xml:space="preserve">
<path fill="#000000" opacity="1.000000" stroke="none" 
	d="
M1.000000,690.000000 
	C1.000000,460.000000 1.000000,230.500000 1.000000,1.000000 
	C694.333313,1.000000 1387.666626,1.000000 2081.000000,1.000000 
	C2081.000000,620.666687 2081.000000,1240.333374 2081.000000,1860.000000 
	C1387.666626,1860.000000 694.333313,1860.000000 1.000000,1860.000000 
	C1.000000,1470.166626 1.000000,1080.333374 1.000000,690.000000 
M1113.956909,1543.531616 
	C1114.560181,1542.344360 1115.147705,1541.148804 1115.768921,1539.971069 
	C1147.814697,1479.214600 1179.871948,1418.464233 1211.907959,1357.702637 
	C1228.586426,1326.069458 1245.227783,1294.416748 1261.886108,1262.772827 
	C1288.384277,1212.437134 1314.880737,1162.100220 1341.381470,1111.765991 
	C1361.218750,1074.088257 1381.066162,1036.416016 1400.901733,998.737549 
	C1427.478638,948.253601 1454.044067,897.763611 1480.622681,847.280579 
	C1500.381470,809.750854 1520.163940,772.233704 1539.916138,734.700562 
	C1559.978760,696.577393 1579.998779,658.431946 1600.070068,620.313416 
	C1626.416260,570.277588 1652.807495,520.265503 1679.155029,470.230316 
	C1699.149048,432.260376 1719.104980,394.270355 1739.077271,356.288971 
	C1766.791382,303.585449 1794.499512,250.878815 1822.220337,198.178894 
	C1846.069702,152.839142 1869.988647,107.535759 1893.689575,62.118576 
	C1895.657349,58.347553 1898.458008,57.319706 1902.020020,56.991100 
	C1908.758057,56.369507 1915.508423,55.882523 1919.363037,55.572269 
	C1342.148315,55.572269 762.031311,55.572269 181.303452,55.572269 
	C182.432465,57.717808 183.168808,59.179615 183.959946,60.611160 
	C194.657013,79.967628 205.347855,99.327553 216.067596,118.671471 
	C233.799377,150.668701 251.548630,182.656250 269.294861,214.645477 
	C288.814423,249.831329 308.362579,285.001373 327.853882,320.202881 
	C343.801117,349.003754 359.636108,377.866821 375.605621,406.655334 
	C396.899078,445.041382 418.307922,483.363434 439.604492,521.747742 
	C457.270569,553.588501 474.807861,585.500732 492.471100,617.343079 
	C513.682922,655.582581 535.005310,693.760864 556.209412,732.004639 
	C573.947388,763.997009 591.536865,796.071716 609.277710,828.062439 
	C630.646851,866.595642 652.142334,905.058655 673.516052,943.589233 
	C692.954773,978.631592 712.266724,1013.744324 731.702209,1048.788574 
	C752.911377,1087.030762 774.232178,1125.211060 795.441284,1163.453247 
	C814.876831,1198.497803 834.184082,1233.613403 853.627197,1268.653564 
	C881.377991,1318.665894 909.216797,1368.629395 936.988098,1418.630371 
	C955.154053,1451.337158 972.941040,1484.259521 991.486694,1516.749146 
	C1014.096985,1556.359619 1034.722900,1596.911987 1052.330811,1638.994019 
	C1054.447266,1644.052124 1057.004517,1648.925659 1059.414673,1654.005127 
	C1077.734985,1616.919922 1095.695312,1580.563110 1113.956909,1543.531616 
M814.151062,1450.348389 
	C807.696838,1438.725586 801.208984,1427.121338 794.795410,1415.476074 
	C781.485962,1391.309937 768.250793,1367.102783 754.921265,1342.947754 
	C736.208801,1309.037964 717.437256,1275.160767 698.692871,1241.268555 
	C685.207397,1216.885132 671.745605,1192.488647 658.234009,1168.119873 
	C649.231628,1151.883667 640.089722,1135.724609 631.136719,1119.461426 
	C619.060974,1097.525879 607.164612,1075.491699 595.081665,1053.560181 
	C585.881104,1036.860596 576.439087,1020.294006 567.231873,1003.598022 
	C554.977966,981.377258 542.894897,959.062317 530.648804,936.837219 
	C521.607605,920.428650 512.347900,904.140320 503.321014,887.723999 
	C491.414124,866.070068 479.710815,844.304077 467.790558,822.657593 
	C452.876648,795.574829 437.783142,768.591003 422.854797,741.516174 
	C403.906952,707.151367 385.091583,672.713440 366.138763,638.351440 
	C338.679688,588.567383 311.130005,538.833191 283.655518,489.057617 
	C268.387909,461.397186 253.407898,433.575745 237.911972,406.044281 
	C219.886536,374.018646 201.938370,341.988617 188.673080,307.583313 
	C185.740143,299.976410 182.142487,292.625793 178.401581,284.137665 
	C183.522110,535.843201 180.345901,786.290405 180.882095,1036.722656 
	C181.418655,1287.322021 180.999924,1537.923218 180.999924,1788.754150 
	C454.443848,1788.754150 727.312622,1788.754150 1000.754333,1788.754150 
	C995.197266,1778.618164 989.901672,1768.893433 984.545837,1759.202026 
	C964.125732,1722.251831 943.665405,1685.323853 923.260437,1648.365356 
	C906.151306,1617.376343 889.103821,1586.353149 872.019043,1555.350830 
	C852.849243,1520.564819 833.668274,1485.785156 814.151062,1450.348389 
M1519.763428,1010.244568 
	C1515.283813,1018.572754 1510.742432,1026.868530 1506.335327,1035.234863 
	C1486.213013,1073.433960 1466.154785,1111.666626 1446.023071,1149.860718 
	C1424.696533,1190.321411 1403.295898,1230.742798 1381.959717,1271.198242 
	C1360.851562,1311.221313 1339.818481,1351.284058 1318.690796,1391.296753 
	C1279.483398,1465.548828 1240.219971,1539.771118 1201.001587,1614.017334 
	C1172.891724,1667.233276 1144.814697,1720.466675 1116.730225,1773.696045 
	C1114.136597,1778.611572 1111.596191,1783.555176 1108.913330,1788.711670 
	C1369.210205,1788.711670 1628.946167,1788.711670 1889.227173,1788.711670 
	C1889.227173,1785.809326 1889.227173,1783.187988 1889.227173,1780.566650 
	C1889.227173,1327.608643 1889.210449,874.650574 1889.301147,421.692505 
	C1889.304077,406.964081 1890.355469,392.233734 1891.004639,377.508087 
	C1891.609253,363.792908 1892.408813,350.086090 1892.974121,336.369507 
	C1893.431519,325.268768 1893.659912,314.158691 1894.018433,303.053680 
	C1894.049927,302.075195 1894.364258,301.107971 1894.425049,300.127930 
	C1894.683228,295.965851 1894.895630,291.800964 1895.124756,287.637085 
	C1894.693237,287.565399 1894.261719,287.493683 1893.830200,287.421967 
	C1891.728149,292.394928 1889.621948,297.366058 1887.525024,302.341217 
	C1879.840820,320.574005 1873.144165,339.303650 1864.269165,356.937042 
	C1846.632202,391.978546 1827.778931,426.407410 1809.459717,461.106171 
	C1777.626953,521.401245 1745.821045,581.710693 1713.997925,642.010925 
	C1695.139526,677.744568 1676.258301,713.466064 1657.408203,749.204041 
	C1637.625122,786.710388 1617.870728,824.231750 1598.097168,861.743042 
	C1572.114380,911.033752 1546.125122,960.321106 1519.763428,1010.244568 
M2014.000000,372.500000 
	C2014.000000,271.502136 2014.000000,170.504288 2014.000000,69.506424 
	C2013.742920,69.506874 2013.485962,69.507317 2013.228882,69.507767 
	C2013.228882,641.866638 2013.228882,1214.225464 2013.228882,1786.584351 
	C2013.485962,1786.584473 2013.742920,1786.584473 2014.000000,1786.584595 
	C2014.000000,1315.556396 2014.000000,844.528198 2014.000000,372.500000 
M138.565002,52.964748 
	C145.968414,52.964748 153.371826,52.964748 160.775238,52.964748 
	C160.772781,52.738487 160.770340,52.512230 160.767883,52.285969 
	C150.270935,52.285969 139.773987,52.285969 129.277054,52.285969 
	C129.275497,52.516609 129.273956,52.747250 129.272415,52.977890 
	C132.047638,52.977890 134.822845,52.977890 138.565002,52.964748 
z"/>
<path fill="#454545" opacity="1.000000" stroke="none" 
	d="
M1113.806396,1543.868896 
	C1095.695312,1580.563110 1077.734985,1616.919922 1059.414673,1654.005127 
	C1057.004517,1648.925659 1054.447266,1644.052124 1052.330811,1638.994019 
	C1034.722900,1596.911987 1014.096985,1556.359619 991.486694,1516.749146 
	C972.941040,1484.259521 955.154053,1451.337158 936.988098,1418.630371 
	C909.216797,1368.629395 881.377991,1318.665894 853.627197,1268.653564 
	C834.184082,1233.613403 814.876831,1198.497803 795.441284,1163.453247 
	C774.232178,1125.211060 752.911377,1087.030762 731.702209,1048.788574 
	C712.266724,1013.744324 692.954773,978.631592 673.516052,943.589233 
	C652.142334,905.058655 630.646851,866.595642 609.277710,828.062439 
	C591.536865,796.071716 573.947388,763.997009 556.209412,732.004639 
	C535.005310,693.760864 513.682922,655.582581 492.471100,617.343079 
	C474.807861,585.500732 457.270569,553.588501 439.604492,521.747742 
	C418.307922,483.363434 396.899078,445.041382 375.605621,406.655334 
	C359.636108,377.866821 343.801117,349.003754 327.853882,320.202881 
	C308.362579,285.001373 288.814423,249.831329 269.294861,214.645477 
	C251.548630,182.656250 233.799377,150.668701 216.067596,118.671471 
	C205.347855,99.327553 194.657013,79.967628 183.959946,60.611160 
	C183.168808,59.179615 182.432465,57.717808 181.303452,55.572269 
	C762.031311,55.572269 1342.148315,55.572269 1919.363037,55.572269 
	C1915.508423,55.882523 1908.758057,56.369507 1902.020020,56.991100 
	C1898.458008,57.319706 1895.657349,58.347553 1893.689575,62.118576 
	C1869.988647,107.535759 1846.069702,152.839142 1822.220337,198.178894 
	C1794.499512,250.878815 1766.791382,303.585449 1739.077271,356.288971 
	C1719.104980,394.270355 1699.149048,432.260376 1679.155029,470.230316 
	C1652.807495,520.265503 1626.416260,570.277588 1600.070068,620.313416 
	C1579.998779,658.431946 1559.978760,696.577393 1539.916138,734.700562 
	C1520.163940,772.233704 1500.381470,809.750854 1480.622681,847.280579 
	C1454.044067,897.763611 1427.478638,948.253601 1400.901733,998.737549 
	C1381.066162,1036.416016 1361.218750,1074.088257 1341.381470,1111.765991 
	C1314.880737,1162.100220 1288.384277,1212.437134 1261.886108,1262.772827 
	C1245.227783,1294.416748 1228.586426,1326.069458 1211.907959,1357.702637 
	C1179.871948,1418.464233 1147.814697,1479.214600 1115.768921,1539.971069 
	C1115.147705,1541.148804 1114.560181,1542.344360 1113.806396,1543.868896 
z"/>
<path fill="#808080" opacity="1.000000" stroke="none" 
	d="
M814.321655,1450.675537 
	C833.668274,1485.785156 852.849243,1520.564819 872.019043,1555.350830 
	C889.103821,1586.353149 906.151306,1617.376343 923.260437,1648.365356 
	C943.665405,1685.323853 964.125732,1722.251831 984.545837,1759.202026 
	C989.901672,1768.893433 995.197266,1778.618164 1000.754333,1788.754150 
	C727.312622,1788.754150 454.443848,1788.754150 180.999924,1788.754150 
	C180.999924,1537.923218 181.418655,1287.322021 180.882095,1036.722656 
	C180.345901,786.290405 183.522110,535.843201 178.401581,284.137665 
	C182.142487,292.625793 185.740143,299.976410 188.673080,307.583313 
	C201.938370,341.988617 219.886536,374.018646 237.911972,406.044281 
	C253.407898,433.575745 268.387909,461.397186 283.655518,489.057617 
	C311.130005,538.833191 338.679688,588.567383 366.138763,638.351440 
	C385.091583,672.713440 403.906952,707.151367 422.854797,741.516174 
	C437.783142,768.591003 452.876648,795.574829 467.790558,822.657593 
	C479.710815,844.304077 491.414124,866.070068 503.321014,887.723999 
	C512.347900,904.140320 521.607605,920.428650 530.648804,936.837219 
	C542.894897,959.062317 554.977966,981.377258 567.231873,1003.598022 
	C576.439087,1020.294006 585.881104,1036.860596 595.081665,1053.560181 
	C607.164612,1075.491699 619.060974,1097.525879 631.136719,1119.461426 
	C640.089722,1135.724609 649.231628,1151.883667 658.234009,1168.119873 
	C671.745605,1192.488647 685.207397,1216.885132 698.692871,1241.268555 
	C717.437256,1275.160767 736.208801,1309.037964 754.921265,1342.947754 
	C768.250793,1367.102783 781.485962,1391.309937 794.795410,1415.476074 
	C801.208984,1427.121338 807.696838,1438.725586 814.321655,1450.675537 
z"/>
<path fill="#808080" opacity="1.000000" stroke="none" 
	d="
M1519.951050,1009.927246 
	C1546.125122,960.321106 1572.114380,911.033752 1598.097168,861.743042 
	C1617.870728,824.231750 1637.625122,786.710388 1657.408203,749.204041 
	C1676.258301,713.466064 1695.139526,677.744568 1713.997925,642.010925 
	C1745.821045,581.710693 1777.626953,521.401245 1809.459717,461.106171 
	C1827.778931,426.407410 1846.632202,391.978546 1864.269165,356.937042 
	C1873.144165,339.303650 1879.840820,320.574005 1887.525024,302.341217 
	C1889.621948,297.366058 1891.728149,292.394928 1893.830200,287.421967 
	C1894.261719,287.493683 1894.693237,287.565399 1895.124756,287.637085 
	C1894.895630,291.800964 1894.683228,295.965851 1894.425049,300.127930 
	C1894.364258,301.107971 1894.049927,302.075195 1894.018433,303.053680 
	C1893.659912,314.158691 1893.431519,325.268768 1892.974121,336.369507 
	C1892.408813,350.086090 1891.609253,363.792908 1891.004639,377.508087 
	C1890.355469,392.233734 1889.304077,406.964081 1889.301147,421.692505 
	C1889.210449,874.650574 1889.227173,1327.608643 1889.227173,1780.566650 
	C1889.227173,1783.187988 1889.227173,1785.809326 1889.227173,1788.711670 
	C1628.946167,1788.711670 1369.210205,1788.711670 1108.913330,1788.711670 
	C1111.596191,1783.555176 1114.136597,1778.611572 1116.730225,1773.696045 
	C1144.814697,1720.466675 1172.891724,1667.233276 1201.001587,1614.017334 
	C1240.219971,1539.771118 1279.483398,1465.548828 1318.690796,1391.296753 
	C1339.818481,1351.284058 1360.851562,1311.221313 1381.959717,1271.198242 
	C1403.295898,1230.742798 1424.696533,1190.321411 1446.023071,1149.860718 
	C1466.154785,1111.666626 1486.213013,1073.433960 1506.335327,1035.234863 
	C1510.742432,1026.868530 1515.283813,1018.572754 1519.951050,1009.927246 
z"/>
<path fill="#282828" opacity="1.000000" stroke="none" 
	d="
M2014.000000,373.000000 
	C2014.000000,844.528198 2014.000000,1315.556396 2014.000000,1786.584595 
	C2013.742920,1786.584473 2013.485962,1786.584473 2013.228882,1786.584351 
	C2013.228882,1214.225464 2013.228882,641.866638 2013.228882,69.507767 
	C2013.485962,69.507317 2013.742920,69.506874 2014.000000,69.506424 
	C2014.000000,170.504288 2014.000000,271.502136 2014.000000,373.000000 
z"/>
<path fill="#2D2D2D" opacity="1.000000" stroke="none" 
	d="
M138.081543,52.971321 
	C134.822845,52.977890 132.047638,52.977890 129.272415,52.977890 
	C129.273956,52.747250 129.275497,52.516609 129.277054,52.285969 
	C139.773987,52.285969 150.270935,52.285969 160.767883,52.285969 
	C160.770340,52.512230 160.772781,52.738487 160.775238,52.964748 
	C153.371826,52.964748 145.968414,52.964748 138.081543,52.971321 
z"/>
</svg>