<?xml version="1.0" standalone="no"?>
<!DOCTYPE svg PUBLIC "-//W3C//DTD SVG 20010904//EN"
 "http://www.w3.org/TR/2001/REC-SVG-20010904/DTD/svg10.dtd">
<svg version="1.0" xmlns="http://www.w3.org/2000/svg"
 width="2703.000000pt" height="168.000000pt" viewBox="0 0 2703.000000 168.000000"
 preserveAspectRatio="xMidYMid meet">

<g transform="translate(0.000000,168.000000) scale(0.100000,-0.100000)"
fill="#000000" stroke="none">
<path d="M5227 1623 c-3 -5 94 -134 215 -288 120 -154 252 -323 293 -376 l74
-97 -319 -387 c-176 -213 -320 -389 -320 -391 0 -2 26 -4 58 -4 l57 0 290 355
c160 195 293 355 297 355 4 0 136 -160 293 -355 l286 -355 60 0 c33 0 59 4 57
8 -1 5 -140 178 -308 386 -168 207 -306 380 -307 384 -1 4 132 176 297 382
164 206 296 378 294 382 -3 4 -29 8 -57 8 l-52 -1 -252 -322 c-139 -177 -263
-335 -276 -351 l-23 -29 -273 352 -273 351 -53 0 c-30 0 -56 -3 -58 -7z"/>
<path d="M9220 1621 l-25 -7 -3 -757 -2 -757 27 -11 c19 -7 34 -7 50 0 l23 11
0 655 0 656 321 -643 c177 -354 328 -651 337 -660 19 -23 64 -23 91 -1 17 15
352 701 577 1183 l54 115 0 -647 c0 -643 0 -647 21 -658 11 -6 33 -8 50 -5
l29 7 0 759 0 759 -48 0 -48 0 -324 -681 c-179 -374 -329 -691 -333 -705 -5
-13 -12 -24 -15 -23 -4 0 -144 276 -311 612 -167 337 -327 655 -355 707 -53
99 -63 106 -116 91z"/>
<path d="M12127 1624 c-4 -4 -7 -353 -7 -775 l0 -769 24 -6 c13 -3 35 -4 47
-2 l24 3 0 775 0 775 -40 3 c-23 2 -44 0 -48 -4z"/>
<path d="M13598 1619 c-17 -9 -18 -57 -18 -774 l0 -765 24 -6 c13 -3 35 -4 47
-2 l24 3 5 695 c3 470 8 690 15 678 19 -32 1080 -1366 1090 -1371 6 -2 27 -2
48 1 l37 4 0 775 0 774 -47 -3 -48 -3 0 -692 c0 -381 -3 -689 -6 -685 -4 4
-242 304 -529 667 -288 363 -534 672 -548 688 -27 28 -63 35 -94 16z"/>
<path d="M16238 1619 c-17 -9 -18 -57 -18 -774 l0 -765 24 -6 c13 -3 35 -4 47
-2 l24 3 5 695 c3 470 8 690 15 678 19 -32 1080 -1366 1090 -1371 6 -2 27 -2
48 1 l37 4 0 775 0 774 -47 -3 -48 -3 0 -692 c0 -381 -3 -689 -6 -685 -4 4
-242 304 -529 667 -288 363 -534 672 -548 688 -27 28 -63 35 -94 16z"/>
<path d="M18877 1624 c-4 -4 -7 -353 -7 -775 l0 -769 24 -6 c13 -3 35 -4 47
-2 l24 3 0 775 0 775 -40 3 c-23 2 -44 0 -48 -4z"/>
<path d="M20338 1619 c-17 -9 -18 -57 -18 -774 l0 -765 24 -6 c13 -3 35 -4 47
-2 l24 3 5 695 c3 470 8 690 15 678 19 -32 1080 -1366 1090 -1371 6 -2 27 -2
48 1 l37 4 0 775 0 774 -47 -3 -48 -3 0 -692 c0 -381 -3 -689 -6 -685 -4 4
-242 304 -529 667 -288 363 -534 672 -548 688 -27 28 -63 35 -94 16z"/>
<path d="M22988 1619 c-17 -9 -18 -57 -18 -774 l0 -765 24 -6 c13 -3 35 -4 47
-2 l24 3 5 695 c3 470 8 690 15 678 19 -32 1080 -1366 1090 -1371 6 -2 27 -2
48 1 l37 4 0 775 0 774 -47 -3 -48 -3 0 -692 c0 -381 -3 -689 -6 -685 -4 4
-242 304 -529 667 -288 363 -534 672 -548 688 -27 28 -63 35 -94 16z"/>
<path d="M3447 1593 c-26 -51 -646 -1478 -649 -1493 -2 -12 8 -15 47 -15 l49
0 297 692 c163 381 299 703 302 715 4 12 8 20 10 18 3 -3 73 -158 157 -345 84
-187 174 -387 200 -445 26 -58 57 -125 68 -150 11 -25 63 -142 116 -260 53
-118 104 -221 113 -228 14 -10 78 -8 91 3 2 2 -153 348 -344 769 l-347 766
-48 0 c-43 0 -50 -3 -62 -27z"/>
<path d="M26077 1593 c-26 -51 -646 -1478 -649 -1493 -2 -12 8 -15 47 -15 l49
0 297 692 c163 381 299 703 302 715 4 12 8 20 10 18 3 -3 73 -158 157 -345 84
-187 174 -387 200 -445 26 -58 57 -125 68 -150 11 -25 63 -142 116 -260 53
-118 104 -221 113 -228 14 -10 78 -8 91 3 2 2 -153 348 -344 769 l-347 766
-48 0 c-43 0 -50 -3 -62 -27z"/>
<path d="M100 1601 l-25 -7 -3 -757 -2 -757 27 -11 c19 -7 34 -7 50 0 l23 11
0 655 0 656 321 -643 c177 -354 328 -651 337 -660 19 -23 64 -23 91 -1 17 15
352 701 577 1183 l54 115 0 -647 c0 -643 0 -647 21 -658 11 -6 33 -8 50 -5
l29 7 0 759 0 759 -48 0 -48 0 -324 -681 c-179 -374 -329 -691 -333 -705 -5
-13 -12 -24 -15 -23 -4 0 -144 276 -311 612 -167 337 -327 655 -355 707 -53
99 -63 106 -116 91z"/>
</g>
</svg>
