<?xml version="1.0" standalone="no"?>
<!DOCTYPE svg PUBLIC "-//W3C//DTD SVG 20010904//EN"
 "http://www.w3.org/TR/2001/REC-SVG-20010904/DTD/svg10.dtd">
<svg version="1.0" xmlns="http://www.w3.org/2000/svg"
 width="2694.000000pt" height="164.000000pt" viewBox="0 0 2694.000000 164.000000"
 preserveAspectRatio="xMidYMid meet">

<g transform="translate(0.000000,164.000000) scale(0.100000,-0.100000)"
fill="#ffffff" stroke="none">
<path d="M5223 1604 c-9 -4 308 -423 568 -750 6 -8 -97 -140 -304 -391 -173
-209 -317 -385 -321 -391 -5 -9 9 -12 51 -12 l58 0 294 359 294 359 86 -106
c47 -59 178 -221 290 -359 l203 -253 60 0 c33 0 58 4 56 8 -1 4 -140 178 -308
385 -168 208 -306 381 -307 385 -2 4 132 176 296 382 165 206 297 378 295 382
-3 4 -29 8 -57 7 l-52 0 -270 -346 c-148 -189 -273 -347 -277 -349 -3 -2 -129
153 -279 346 l-272 350 -46 -1 c-25 0 -51 -3 -58 -5z"/>
<path d="M9210 1601 l-25 -7 -3 -757 -2 -757 27 -11 c19 -7 34 -7 50 0 l23 11
0 655 0 656 321 -643 c177 -354 328 -651 337 -660 19 -23 64 -23 91 -1 17 15
352 701 577 1183 l54 115 0 -647 c0 -643 0 -647 21 -658 11 -6 33 -8 50 -5
l29 7 0 759 0 759 -48 0 -48 0 -324 -681 c-179 -374 -329 -691 -333 -705 -5
-13 -12 -24 -15 -23 -4 0 -144 276 -311 612 -167 337 -327 655 -355 707 -53
99 -63 106 -116 91z"/>
<path d="M12123 1604 c-10 -5 -13 -169 -13 -775 l0 -769 25 -6 c14 -3 36 -3
50 0 l25 6 -2 773 -3 772 -35 2 c-19 1 -41 0 -47 -3z"/>
<path d="M13593 1600 l-23 -9 0 -765 0 -766 25 -6 c14 -3 36 -3 50 0 l25 6 0
698 c1 608 3 694 15 672 8 -14 254 -326 547 -695 l534 -670 47 -3 47 -3 0 775
0 776 -45 0 -45 0 -2 -695 -3 -695 -550 692 c-579 729 -564 712 -622 688z"/>
<path d="M16233 1600 l-23 -9 0 -765 0 -766 25 -6 c14 -3 36 -3 50 0 l25 6 0
698 c1 608 3 694 15 672 8 -14 254 -326 547 -695 l534 -670 47 -3 47 -3 0 775
0 776 -45 0 -45 0 -2 -695 -3 -695 -550 692 c-579 729 -564 712 -622 688z"/>
<path d="M18873 1604 c-10 -5 -13 -169 -13 -775 l0 -769 25 -6 c14 -3 36 -3
50 0 l25 6 -2 773 -3 772 -35 2 c-19 1 -41 0 -47 -3z"/>
<path d="M20325 1598 c-3 -7 -4 -355 -3 -773 l3 -760 41 -3 42 -3 503 633
c277 348 525 661 551 696 l48 63 0 -694 0 -695 25 -6 c14 -4 36 -4 50 0 l25 6
0 764 0 764 -27 11 c-15 5 -36 9 -47 7 -13 -2 -201 -231 -528 -643 -280 -352
-529 -666 -553 -698 l-45 -59 -2 699 -3 698 -38 3 c-24 2 -39 -1 -42 -10z"/>
<path d="M22975 1598 c-3 -7 -4 -355 -3 -773 l3 -760 41 -3 42 -3 503 633
c277 348 525 661 551 696 l48 63 0 -694 0 -695 25 -6 c14 -4 36 -4 50 0 l25 6
0 764 0 764 -27 11 c-15 5 -36 9 -47 7 -13 -2 -201 -231 -528 -643 -280 -352
-529 -666 -553 -698 l-45 -59 -2 699 -3 698 -38 3 c-24 2 -39 -1 -42 -10z"/>
<path d="M3437 1573 c-26 -51 -646 -1478 -649 -1493 -2 -12 8 -15 47 -15 l49
0 297 692 c163 381 299 703 302 715 4 12 8 20 10 18 3 -3 73 -158 157 -345 84
-187 174 -387 200 -445 26 -58 57 -125 68 -150 11 -25 63 -142 116 -260 53
-118 104 -221 113 -228 14 -10 78 -8 91 3 2 2 -153 348 -344 769 l-347 766
-48 0 c-43 0 -50 -3 -62 -27z"/>
<path d="M26067 1573 c-26 -51 -646 -1478 -649 -1493 -2 -12 8 -15 47 -15 l49
0 297 692 c163 381 299 703 302 715 4 12 8 20 10 18 3 -3 73 -158 157 -345 84
-187 174 -387 200 -445 26 -58 57 -125 68 -150 11 -25 63 -142 116 -260 53
-118 104 -221 113 -228 14 -10 78 -8 91 3 2 2 -153 348 -344 769 l-347 766
-48 0 c-43 0 -50 -3 -62 -27z"/>
<path d="M90 1581 l-25 -7 -3 -757 -2 -757 27 -11 c19 -7 34 -7 50 0 l23 11 0
655 0 656 321 -643 c177 -354 328 -651 337 -660 19 -23 64 -23 91 -1 17 15
352 701 577 1183 l54 115 0 -647 c0 -643 0 -647 21 -658 11 -6 33 -8 50 -5
l29 7 0 759 0 759 -48 0 -48 0 -324 -681 c-179 -374 -329 -691 -333 -705 -5
-13 -12 -24 -15 -23 -4 0 -144 276 -311 612 -167 337 -327 655 -355 707 -53
99 -63 106 -116 91z"/>
</g>
</svg>
