<?xml version="1.0" standalone="no"?>
<!DOCTYPE svg PUBLIC "-//W3C//DTD SVG 20010904//EN"
 "http://www.w3.org/TR/2001/REC-SVG-20010904/DTD/svg10.dtd">
<svg version="1.0" xmlns="http://www.w3.org/2000/svg"
 width="7433.000000pt" height="1422.000000pt" viewBox="0 0 7433.000000 1422.000000"
 preserveAspectRatio="xMidYMid meet">

<g transform="translate(0.000000,1422.000000) scale(0.100000,-0.100000)"
fill="#000000" stroke="none">
<path d="M0 7110 l0 -7110 37165 0 37165 0 0 7110 0 7110 -37165 0 -37165 0 0
-7110z m548 6680 c133 -12 181 -33 221 -97 46 -73 208 -488 669 -1718 442
-1179 875 -2323 1062 -2810 149 -387 412 -1102 942 -2559 241 -666 455 -1244
474 -1285 40 -87 71 -126 89 -111 13 11 40 78 141 360 185 514 1237 3263 2092
5465 353 908 767 1986 877 2279 37 99 84 216 105 261 44 97 35 93 231 102 135
6 253 -1 277 -16 19 -12 35 -687 62 -2751 17 -1265 49 -3456 70 -4775 11 -687
20 -1323 20 -1412 l0 -163 -230 0 -230 0 2 4083 c3 4105 2 4277 -30 4309 -23
23 -97 -156 -265 -637 -289 -829 -816 -2221 -1660 -4385 -1147 -2940 -1264
-3238 -1306 -3306 -26 -42 -83 -67 -156 -68 -115 -1 -204 44 -244 122 -78 154
-662 1674 -1293 3367 -780 2093 -1261 3422 -1520 4200 -147 444 -209 600 -238
600 -8 0 -18 -16 -23 -40 -9 -41 -4 -414 13 -1030 15 -530 30 -3095 30 -5262
l0 -1933 -183 0 -184 0 -6 498 c-4 273 -10 2348 -14 4610 l-6 4112 54 0 c30
-1 100 -5 157 -10z m26634 -80 c43 -12 97 -69 132 -139 55 -107 258 -633 746
-1931 383 -1018 904 -2395 1000 -2645 253 -657 849 -2275 1108 -3010 60 -170
134 -375 163 -455 59 -158 137 -323 156 -328 23 -6 79 126 198 463 96 274 492
1317 910 2395 114 294 504 1307 867 2250 794 2064 1092 2819 1246 3150 60 131
113 164 262 164 163 1 209 -23 230 -117 22 -102 41 -1068 60 -3132 25 -2678
37 -3591 66 -5013 9 -436 15 -795 13 -796 -12 -11 -363 -29 -396 -20 l-38 9
-8 175 c-4 96 -9 1844 -11 3885 -3 3499 -8 4259 -27 4271 -18 11 -47 -37 -82
-136 -446 -1268 -689 -1931 -1044 -2850 -423 -1093 -1654 -4256 -1993 -5118
-82 -208 -93 -222 -185 -222 -80 0 -186 19 -219 38 -71 41 -113 144 -763 1857
-1141 3009 -1670 4455 -2081 5692 -179 538 -234 678 -262 678 -18 0 -18 -27
-2 -245 15 -196 29 -924 44 -2285 14 -1291 16 -5576 2 -5655 -9 -55 -9 -55
-54 -67 -25 -6 -111 -12 -193 -12 l-147 -1 2 4541 3 4541 65 25 c70 26 156 51
180 52 8 1 31 -4 52 -9z m31882 -44 c16 -15 29 -48 40 -97 55 -250 59 -769 47
-5178 -6 -2093 -13 -3807 -16 -3810 -5 -5 -388 -31 -392 -27 -2 1 1 965 7
2142 8 1996 15 5200 11 5894 -1 262 -3 302 -15 285 -7 -11 -85 -159 -173 -330
-237 -460 -395 -728 -848 -1440 -445 -699 -2162 -3309 -3627 -5511 -593 -893
-663 -993 -696 -1007 -68 -29 -116 -38 -248 -44 l-132 -6 -7 2144 c-8 2601 -3
6928 8 6951 12 24 71 41 138 40 72 -1 126 -15 170 -45 85 -57 85 -45 71 -4596
-6 -2087 -10 -3796 -9 -3798 2 -1 59 102 127 230 469 880 494 919 3447 5377
1165 1760 1594 2417 1722 2640 73 127 100 147 236 185 104 29 112 29 139 1z
m-23154 -4541 l0 -4555 -22 -4 c-221 -48 -273 -51 -299 -16 -47 63 -66 274
-79 871 -20 928 -6 7973 16 8171 5 47 11 59 28 64 34 12 143 21 254 23 l102 1
0 -4555z m14365 4535 c12 -5 25 -20 29 -34 11 -45 26 -3559 26 -6343 l0 -2723
-208 0 -208 0 -239 362 c-132 200 -518 784 -859 1298 -647 977 -1142 1727
-2036 3085 -1361 2067 -1706 2619 -2111 3374 -67 125 -105 187 -108 175 -5
-27 18 -7157 25 -7770 l6 -512 -28 -6 c-141 -28 -323 -41 -339 -24 -16 15 -25
98 -37 318 -19 342 -19 7924 0 8380 7 173 16 330 20 349 12 55 50 76 135 76
82 0 142 -24 198 -78 19 -18 124 -170 234 -338 222 -338 989 -1498 1935 -2924
1784 -2691 2462 -3735 2804 -4320 65 -110 180 -327 257 -481 77 -155 146 -287
154 -294 36 -30 38 -7 31 319 -3 174 -10 442 -16 596 -22 683 -32 2216 -27
4215 7 2475 21 3225 63 3271 9 10 39 23 68 28 28 6 60 13 71 15 27 6 131 -3
160 -14z m1508 -11 l127 -22 0 -4533 0 -4533 -57 -11 c-32 -6 -92 -20 -133
-31 -41 -11 -85 -17 -98 -14 -33 8 -59 73 -77 190 -38 258 -40 434 -39 4375 2
3790 7 4553 33 4583 24 29 54 29 244 -4z m8652 6 c101 -29 109 -45 124 -260
21 -296 22 -998 11 -4305 -6 -1878 -10 -3514 -8 -3635 l3 -220 109 205 c480
902 746 1318 3259 5100 1609 2420 1919 2896 1947 2983 22 69 142 133 271 144
71 6 131 -13 144 -45 15 -37 25 -1663 31 -5269 l7 -3793 -213 0 -213 0 7 868
c11 1510 19 6488 11 6965 -6 402 -9 456 -22 445 -8 -7 -56 -93 -105 -193 -366
-730 -840 -1472 -3948 -6170 -1053 -1592 -1239 -1856 -1343 -1912 -36 -18
-163 -52 -199 -53 -82 0 -110 154 -128 710 -12 388 -13 6550 0 7624 8 665 11
792 23 804 34 33 128 36 232 7z m-48218 -11 c51 -38 109 -188 856 -2204 737
-1990 944 -2549 1142 -3080 97 -261 292 -788 432 -1170 285 -779 670 -1809
791 -2121 138 -356 158 -438 115 -480 -19 -19 -38 -23 -138 -31 -134 -9 -167
-1 -208 54 -67 88 -132 249 -467 1158 -294 799 -571 1541 -733 1965 -63 165
-152 408 -197 540 -88 256 -323 887 -595 1595 -346 901 -583 1557 -879 2435
-201 598 -237 697 -254 703 -13 4 -40 -70 -227 -628 -256 -764 -438 -1268
-790 -2190 -336 -880 -497 -1317 -620 -1680 -88 -261 -136 -389 -210 -565 -84
-200 -419 -1098 -840 -2255 -249 -684 -360 -980 -387 -1033 -22 -45 -57 -62
-165 -83 -90 -17 -185 -17 -233 -1 -34 12 -35 14 -34 62 2 58 10 81 174 505
67 173 376 990 685 1815 310 825 747 1986 970 2580 628 1669 1204 3221 1386
3733 107 301 131 345 214 384 55 26 172 22 212 -8z m4668 11 c33 -9 68 -24 79
-33 65 -57 868 -1340 1911 -3052 186 -305 396 -649 468 -764 l129 -208 23 23
c98 102 1235 1818 2242 3384 l418 650 75 3 c110 4 415 -15 439 -27 36 -20 17
-53 -168 -306 -57 -77 -352 -515 -657 -973 -907 -1364 -1830 -2735 -2008
-2982 -49 -69 -89 -129 -89 -135 0 -18 1417 -2233 2542 -3974 123 -190 245
-385 273 -433 56 -99 91 -189 82 -212 -23 -59 -332 -82 -411 -30 -54 35 -339
454 -758 1114 -324 510 -703 1098 -1260 1955 -257 395 -513 791 -569 879 -110
175 -152 226 -184 226 -29 0 -75 -68 -276 -403 -91 -152 -306 -503 -477 -780
-462 -743 -878 -1421 -1214 -1972 -347 -569 -472 -771 -566 -912 -88 -130 -82
-128 -339 -128 -171 0 -199 2 -223 18 -47 31 -37 58 82 238 148 224 540 837
981 1534 202 319 521 823 710 1120 454 714 722 1139 899 1425 167 271 169 277
115 390 -68 144 -476 804 -950 1536 -425 657 -1355 2138 -1519 2419 -106 180
-185 340 -185 371 0 19 9 26 48 38 65 20 260 21 337 1z m20399 1 c21 -9 51
-39 85 -86 145 -199 938 -1390 2814 -4225 1948 -2944 2096 -3177 2415 -3810
131 -258 173 -328 189 -312 11 12 10 205 -6 1002 -10 512 -14 1510 -15 3860
-1 3318 0 3452 40 3496 29 33 108 49 235 49 l117 0 7 -2287 c11 -3237 11
-6245 1 -6535 l-8 -248 -207 1 -206 0 -522 787 c-3259 4918 -4238 6436 -4683
7262 -72 135 -136 249 -141 254 -5 6 -9 -1601 -9 -4136 l0 -4146 -27 -6 c-16
-3 -82 -7 -148 -11 -66 -3 -141 -8 -167 -11 l-48 -6 0 3389 c1 4083 13 5571
46 5676 15 47 164 74 238 43z m33445 -80 c78 -41 142 -192 531 -1246 131 -355
329 -888 440 -1185 259 -693 808 -2182 1245 -3380 189 -517 441 -1203 560
-1525 513 -1384 555 -1505 555 -1604 0 -48 -33 -69 -116 -74 -132 -9 -205 43
-274 192 -21 45 -129 329 -240 631 -373 1014 -818 2211 -1275 3430 -835 2228
-1252 3397 -1410 3955 -15 52 -33 101 -41 109 -39 42 -90 -70 -277 -625 -210
-618 -474 -1341 -870 -2379 -330 -867 -412 -1085 -567 -1515 -143 -397 -218
-602 -648 -1770 -345 -937 -524 -1429 -612 -1685 -90 -259 -120 -309 -200
-333 -49 -14 -246 -23 -276 -12 -51 20 -35 78 156 565 204 520 548 1434 835
2220 130 356 373 1009 1145 3080 742 1990 978 2626 1015 2735 40 118 109 282
140 330 55 88 121 118 184 86z m-64117 -10307 c312 -34 576 -156 783 -364 177
-177 286 -389 347 -669 19 -86 22 -132 22 -316 0 -184 -3 -230 -22 -317 -57
-262 -165 -473 -334 -650 -181 -188 -402 -311 -668 -369 -69 -15 -127 -19
-305 -19 -194 0 -232 3 -324 23 -544 122 -897 498 -993 1056 -27 160 -21 460
11 601 44 189 99 320 195 465 277 415 743 617 1288 559z m19800 0 c312 -34
576 -156 783 -364 177 -177 286 -389 347 -669 19 -86 22 -132 22 -316 0 -184
-3 -230 -22 -317 -57 -262 -165 -473 -334 -650 -181 -188 -402 -311 -668 -369
-69 -15 -127 -19 -305 -19 -194 0 -232 3 -324 23 -544 122 -897 498 -993 1056
-27 160 -21 460 11 601 44 189 99 320 195 465 277 415 743 617 1288 559z
m13550 0 c312 -34 576 -156 783 -364 177 -177 286 -389 347 -669 19 -86 22
-132 22 -316 0 -184 -3 -230 -22 -317 -57 -262 -165 -473 -334 -650 -181 -188
-402 -311 -668 -369 -69 -15 -127 -19 -305 -19 -194 0 -232 3 -324 23 -544
122 -897 498 -993 1056 -27 160 -21 460 11 601 44 189 99 320 195 465 277 415
743 617 1288 559z m-38444 -63 c383 -62 616 -219 699 -471 23 -71 26 -96 27
-215 0 -155 -14 -222 -72 -340 -46 -93 -157 -209 -257 -268 -146 -85 -346
-147 -580 -177 -144 -19 -469 -25 -627 -12 l-98 8 0 -565 0 -566 -100 0 -100
0 0 1316 0 1316 503 -5 c403 -4 522 -8 605 -21z m10173 14 c149 -8 209 -15
300 -39 204 -51 336 -118 438 -222 107 -109 151 -219 158 -394 8 -193 -36
-339 -143 -475 -127 -161 -372 -286 -603 -307 -36 -3 -72 -9 -80 -13 -9 -5
132 -172 486 -571 274 -310 502 -570 506 -576 6 -10 -19 -13 -116 -13 l-124 0
-509 570 -509 570 -247 0 -248 0 0 -570 0 -570 -100 0 -100 0 0 1310 0 1310
353 0 c193 0 436 -5 538 -10z m5919 -75 l0 -85 -510 0 -510 0 0 -1225 0 -1225
-100 0 -100 0 0 1225 0 1225 -510 0 -510 0 0 85 0 85 1120 0 1120 0 0 -85z
m4490 0 l0 -85 -725 0 -725 0 0 -510 0 -510 665 0 665 0 0 -85 0 -85 -665 0
-665 0 0 -635 0 -635 -69 0 c-38 0 -83 3 -100 6 l-31 7 0 1308 0 1309 825 0
825 0 0 -85z m8700 -1145 l0 -1230 745 0 745 0 0 -85 0 -85 -845 0 -845 0 0
1315 0 1315 100 0 100 0 0 -1230z m4620 -85 l0 -1315 -100 0 -100 0 0 1315 0
1315 100 0 100 0 0 -1315z m12706 383 c249 -513 507 -1055 575 -1205 68 -150
124 -271 126 -270 1 2 257 543 567 1202 l565 1200 155 3 156 3 0 -1316 0
-1315 -100 0 -100 0 0 753 c0 669 7 1108 25 1567 l5 145 -203 -405 c-111 -223
-375 -777 -586 -1232 l-384 -828 -97 0 -97 0 -352 743 c-366 771 -833 1716
-839 1698 -2 -5 2 -133 8 -283 7 -150 14 -697 17 -1215 l5 -943 -101 0 -101 0
0 1315 0 1315 153 0 152 0 451 -932z m6030 0 c249 -513 507 -1055 575 -1205
68 -150 124 -271 126 -270 1 2 257 543 567 1202 l565 1200 155 3 156 3 0
-1311 0 -1310 -100 0 -100 0 0 748 c0 665 7 1107 25 1562 l5 145 -200 -400
c-111 -220 -373 -771 -584 -1225 l-382 -825 -104 0 -104 0 -392 825 c-381 800
-786 1619 -792 1600 -2 -5 2 -132 8 -282 7 -150 14 -695 17 -1210 l5 -938
-101 0 -101 0 0 1310 0 1310 153 0 152 0 451 -932z m5573 455 c193 -263 389
-526 435 -585 l84 -108 99 123 c54 67 253 330 442 585 l344 462 114 0 c62 0
113 -2 113 -5 0 -3 -216 -293 -480 -645 -264 -352 -480 -642 -480 -645 0 -3
227 -303 505 -665 l504 -660 -118 0 -118 0 -364 477 c-200 263 -410 535 -466
606 l-101 128 -59 -73 c-33 -40 -239 -305 -457 -588 -219 -283 -406 -523 -415
-533 -15 -15 -32 -17 -130 -15 l-112 3 511 664 c281 365 510 669 508 676 -2 6
-212 291 -468 633 -256 343 -466 627 -468 632 -2 6 42 10 112 10 l115 0 350
-477z m4760 0 c193 -263 389 -526 435 -585 l84 -108 99 123 c54 67 253 330
442 585 l344 462 114 0 c62 0 113 -2 113 -5 0 -3 -216 -293 -480 -645 -264
-352 -480 -642 -480 -645 0 -3 227 -303 505 -665 l504 -660 -118 0 -118 0
-364 477 c-200 263 -410 535 -466 606 l-101 128 -59 -73 c-33 -40 -239 -305
-457 -588 -219 -283 -406 -523 -415 -533 -15 -15 -32 -17 -130 -15 l-112 3
511 664 c281 365 510 669 508 676 -2 6 -212 291 -468 633 -256 343 -466 627
-468 632 -2 6 42 10 112 10 l115 0 350 -477z m4728 -335 c328 -803 549 -1357
614 -1534 l33 -91 74 201 c71 192 203 524 682 1709 l213 527 105 0 c95 0 104
-2 98 -17 -4 -10 -244 -600 -534 -1310 l-527 -1293 -115 0 -115 1 -527 1292
c-290 710 -530 1300 -534 1310 -6 15 3 17 98 17 l104 0 331 -812z m4883 -498
l0 -1310 -100 0 -100 0 0 1310 0 1310 100 0 100 0 0 -1310z"/>
<path d="M6217 3094 c-402 -72 -718 -352 -841 -743 -45 -142 -60 -250 -60
-436 0 -301 63 -527 204 -735 216 -318 626 -496 1043 -451 509 55 854 375 964
891 28 133 25 469 -5 609 -103 472 -431 792 -887 866 -112 18 -314 18 -418 -1z"/>
<path d="M26017 3094 c-402 -72 -718 -352 -841 -743 -45 -142 -60 -250 -60
-436 0 -301 63 -527 204 -735 216 -318 626 -496 1043 -451 509 55 854 375 964
891 28 133 25 469 -5 609 -103 472 -431 792 -887 866 -112 18 -314 18 -418 -1z"/>
<path d="M39567 3094 c-402 -72 -718 -352 -841 -743 -45 -142 -60 -250 -60
-436 0 -301 63 -527 204 -735 216 -318 626 -496 1043 -451 509 55 854 375 964
891 28 133 25 469 -5 609 -103 472 -431 792 -887 866 -112 18 -314 18 -418 -1z"/>
<path d="M610 2482 l0 -580 28 -6 c15 -3 117 -9 227 -12 670 -22 1056 135
1148 466 52 187 17 366 -94 484 -68 73 -152 121 -279 160 -171 52 -228 58
-642 63 l-388 5 0 -580z"/>
<path d="M11000 2491 l0 -571 279 0 c453 0 654 31 840 131 76 40 174 141 207
213 77 169 70 395 -17 526 -63 93 -166 159 -323 204 -163 48 -266 58 -638 63
l-348 5 0 -571z"/>
</g>
</svg>
