<?xml version="1.0" standalone="no"?>
<!DOCTYPE svg PUBLIC "-//W3C//DTD SVG 20010904//EN"
 "http://www.w3.org/TR/2001/REC-SVG-20010904/DTD/svg10.dtd">
<svg version="1.0" xmlns="http://www.w3.org/2000/svg"
 width="7433.000000pt" height="1422.000000pt" viewBox="0 0 7433.000000 1422.000000"
 preserveAspectRatio="xMidYMid meet">

<g transform="translate(0.000000,1422.000000) scale(0.100000,-0.100000)"
fill="#000000" stroke="none">
<path d="M0 9120 l0 -5100 37165 0 37165 0 0 5100 0 5100 -37165 0 -37165 0 0
-5100z m548 4670 c133 -12 181 -33 221 -97 46 -73 208 -488 669 -1718 442
-1179 875 -2323 1062 -2810 149 -387 412 -1102 942 -2559 241 -666 455 -1244
474 -1285 40 -87 71 -126 89 -111 13 11 40 78 141 360 185 514 1237 3263 2092
5465 353 908 767 1986 877 2279 37 99 84 216 105 261 44 97 35 93 231 102 135
6 253 -1 277 -16 19 -12 35 -687 62 -2751 17 -1265 49 -3456 70 -4775 11 -687
20 -1323 20 -1412 l0 -163 -230 0 -230 0 2 4083 c3 4105 2 4277 -30 4309 -23
23 -97 -156 -265 -637 -289 -829 -816 -2221 -1660 -4385 -1147 -2940 -1264
-3238 -1306 -3306 -26 -42 -83 -67 -156 -68 -115 -1 -204 44 -244 122 -78 154
-662 1674 -1293 3367 -780 2093 -1261 3422 -1520 4200 -147 444 -209 600 -238
600 -8 0 -18 -16 -23 -40 -9 -41 -4 -414 13 -1030 15 -530 30 -3095 30 -5262
l0 -1933 -183 0 -184 0 -6 498 c-4 273 -10 2348 -14 4610 l-6 4112 54 0 c30
-1 100 -5 157 -10z m26634 -80 c43 -12 97 -69 132 -139 55 -107 258 -633 746
-1931 383 -1018 904 -2395 1000 -2645 253 -657 849 -2275 1108 -3010 60 -170
134 -375 163 -455 59 -158 137 -323 156 -328 23 -6 79 126 198 463 96 274 492
1317 910 2395 114 294 504 1307 867 2250 794 2064 1092 2819 1246 3150 60 131
113 164 262 164 163 1 209 -23 230 -117 22 -102 41 -1068 60 -3132 25 -2678
37 -3591 66 -5013 9 -436 15 -795 13 -796 -12 -11 -363 -29 -396 -20 l-38 9
-8 175 c-4 96 -9 1844 -11 3885 -3 3499 -8 4259 -27 4271 -18 11 -47 -37 -82
-136 -446 -1268 -689 -1931 -1044 -2850 -423 -1093 -1654 -4256 -1993 -5118
-82 -208 -93 -222 -185 -222 -80 0 -186 19 -219 38 -71 41 -113 144 -763 1857
-1141 3009 -1670 4455 -2081 5692 -179 538 -234 678 -262 678 -18 0 -18 -27
-2 -245 15 -196 29 -924 44 -2285 14 -1291 16 -5576 2 -5655 -9 -55 -9 -55
-54 -67 -25 -6 -111 -12 -193 -12 l-147 -1 2 4541 3 4541 65 25 c70 26 156 51
180 52 8 1 31 -4 52 -9z m31882 -44 c16 -15 29 -48 40 -97 55 -250 59 -769 47
-5178 -6 -2093 -13 -3807 -16 -3810 -5 -5 -388 -31 -392 -27 -2 1 1 965 7
2142 8 1996 15 5200 11 5894 -1 262 -3 302 -15 285 -7 -11 -85 -159 -173 -330
-237 -460 -395 -728 -848 -1440 -445 -699 -2162 -3309 -3627 -5511 -593 -893
-663 -993 -696 -1007 -68 -29 -116 -38 -248 -44 l-132 -6 -7 2144 c-8 2601 -3
6928 8 6951 12 24 71 41 138 40 72 -1 126 -15 170 -45 85 -57 85 -45 71 -4596
-6 -2087 -10 -3796 -9 -3798 2 -1 59 102 127 230 469 880 494 919 3447 5377
1165 1760 1594 2417 1722 2640 73 127 100 147 236 185 104 29 112 29 139 1z
m-23154 -4541 l0 -4555 -22 -4 c-221 -48 -273 -51 -299 -16 -47 63 -66 274
-79 871 -20 928 -6 7973 16 8171 5 47 11 59 28 64 34 12 143 21 254 23 l102 1
0 -4555z m14365 4535 c12 -5 25 -20 29 -34 11 -45 26 -3559 26 -6343 l0 -2723
-208 0 -208 0 -239 362 c-132 200 -518 784 -859 1298 -647 977 -1142 1727
-2036 3085 -1361 2067 -1706 2619 -2111 3374 -67 125 -105 187 -108 175 -5
-27 18 -7157 25 -7770 l6 -512 -28 -6 c-141 -28 -323 -41 -339 -24 -16 15 -25
98 -37 318 -19 342 -19 7924 0 8380 7 173 16 330 20 349 12 55 50 76 135 76
82 0 142 -24 198 -78 19 -18 124 -170 234 -338 222 -338 989 -1498 1935 -2924
1784 -2691 2462 -3735 2804 -4320 65 -110 180 -327 257 -481 77 -155 146 -287
154 -294 36 -30 38 -7 31 319 -3 174 -10 442 -16 596 -22 683 -32 2216 -27
4215 7 2475 21 3225 63 3271 9 10 39 23 68 28 28 6 60 13 71 15 27 6 131 -3
160 -14z m1508 -11 l127 -22 0 -4533 0 -4533 -57 -11 c-32 -6 -92 -20 -133
-31 -41 -11 -85 -17 -98 -14 -33 8 -59 73 -77 190 -38 258 -40 434 -39 4375 2
3790 7 4553 33 4583 24 29 54 29 244 -4z m8652 6 c101 -29 109 -45 124 -260
21 -296 22 -998 11 -4305 -6 -1878 -10 -3514 -8 -3635 l3 -220 109 205 c480
902 746 1318 3259 5100 1609 2420 1919 2896 1947 2983 22 69 142 133 271 144
71 6 131 -13 144 -45 15 -37 25 -1663 31 -5269 l7 -3793 -213 0 -213 0 7 868
c11 1510 19 6488 11 6965 -6 402 -9 456 -22 445 -8 -7 -56 -93 -105 -193 -366
-730 -840 -1472 -3948 -6170 -1053 -1592 -1239 -1856 -1343 -1912 -36 -18
-163 -52 -199 -53 -82 0 -110 154 -128 710 -12 388 -13 6550 0 7624 8 665 11
792 23 804 34 33 128 36 232 7z m-48218 -11 c51 -38 109 -188 856 -2204 737
-1990 944 -2549 1142 -3080 97 -261 292 -788 432 -1170 285 -779 670 -1809
791 -2121 138 -356 158 -438 115 -480 -19 -19 -38 -23 -138 -31 -134 -9 -167
-1 -208 54 -67 88 -132 249 -467 1158 -294 799 -571 1541 -733 1965 -63 165
-152 408 -197 540 -88 256 -323 887 -595 1595 -346 901 -583 1557 -879 2435
-201 598 -237 697 -254 703 -13 4 -40 -70 -227 -628 -256 -764 -438 -1268
-790 -2190 -336 -880 -497 -1317 -620 -1680 -88 -261 -136 -389 -210 -565 -84
-200 -419 -1098 -840 -2255 -249 -684 -360 -980 -387 -1033 -22 -45 -57 -62
-165 -83 -90 -17 -185 -17 -233 -1 -34 12 -35 14 -34 62 2 58 10 81 174 505
67 173 376 990 685 1815 310 825 747 1986 970 2580 628 1669 1204 3221 1386
3733 107 301 131 345 214 384 55 26 172 22 212 -8z m4668 11 c33 -9 68 -24 79
-33 65 -57 868 -1340 1911 -3052 186 -305 396 -649 468 -764 l129 -208 23 23
c98 102 1235 1818 2242 3384 l418 650 75 3 c110 4 415 -15 439 -27 36 -20 17
-53 -168 -306 -57 -77 -352 -515 -657 -973 -907 -1364 -1830 -2735 -2008
-2982 -49 -69 -89 -129 -89 -135 0 -18 1417 -2233 2542 -3974 123 -190 245
-385 273 -433 56 -99 91 -189 82 -212 -23 -59 -332 -82 -411 -30 -54 35 -339
454 -758 1114 -324 510 -703 1098 -1260 1955 -257 395 -513 791 -569 879 -110
175 -152 226 -184 226 -29 0 -75 -68 -276 -403 -91 -152 -306 -503 -477 -780
-462 -743 -878 -1421 -1214 -1972 -347 -569 -472 -771 -566 -912 -88 -130 -82
-128 -339 -128 -171 0 -199 2 -223 18 -47 31 -37 58 82 238 148 224 540 837
981 1534 202 319 521 823 710 1120 454 714 722 1139 899 1425 167 271 169 277
115 390 -68 144 -476 804 -950 1536 -425 657 -1355 2138 -1519 2419 -106 180
-185 340 -185 371 0 19 9 26 48 38 65 20 260 21 337 1z m20399 1 c21 -9 51
-39 85 -86 145 -199 938 -1390 2814 -4225 1948 -2944 2096 -3177 2415 -3810
131 -258 173 -328 189 -312 11 12 10 205 -6 1002 -10 512 -14 1510 -15 3860
-1 3318 0 3452 40 3496 29 33 108 49 235 49 l117 0 7 -2287 c11 -3237 11
-6245 1 -6535 l-8 -248 -207 1 -206 0 -522 787 c-3259 4918 -4238 6436 -4683
7262 -72 135 -136 249 -141 254 -5 6 -9 -1601 -9 -4136 l0 -4146 -27 -6 c-16
-3 -82 -7 -148 -11 -66 -3 -141 -8 -167 -11 l-48 -6 0 3389 c1 4083 13 5571
46 5676 15 47 164 74 238 43z m33445 -80 c78 -41 142 -192 531 -1246 131 -355
329 -888 440 -1185 259 -693 808 -2182 1245 -3380 189 -517 441 -1203 560
-1525 513 -1384 555 -1505 555 -1604 0 -48 -33 -69 -116 -74 -132 -9 -205 43
-274 192 -21 45 -129 329 -240 631 -373 1014 -818 2211 -1275 3430 -835 2228
-1252 3397 -1410 3955 -15 52 -33 101 -41 109 -39 42 -90 -70 -277 -625 -210
-618 -474 -1341 -870 -2379 -330 -867 -412 -1085 -567 -1515 -143 -397 -218
-602 -648 -1770 -345 -937 -524 -1429 -612 -1685 -90 -259 -120 -309 -200
-333 -49 -14 -246 -23 -276 -12 -51 20 -35 78 156 565 204 520 548 1434 835
2220 130 356 373 1009 1145 3080 742 1990 978 2626 1015 2735 40 118 109 282
140 330 55 88 121 118 184 86z"/>
<path d="M6190 3256 c-111 -20 -187 -42 -286 -81 -411 -165 -689 -517 -781
-990 -26 -138 -24 -425 5 -570 84 -422 315 -737 670 -914 276 -138 668 -177
992 -99 427 103 765 418 904 844 116 353 91 785 -63 1110 -170 357 -459 588
-851 681 -90 21 -135 25 -310 29 -143 2 -228 -1 -280 -10z m418 -152 c393 -58
692 -283 844 -636 152 -352 137 -851 -34 -1182 -189 -363 -540 -566 -979 -566
-471 0 -857 243 -1030 650 -17 41 -45 127 -61 190 -27 101 -31 137 -35 300 -6
202 7 317 52 475 155 537 669 855 1243 769z"/>
<path d="M25985 3255 c-557 -98 -958 -501 -1062 -1068 -27 -143 -24 -429 5
-575 56 -277 168 -497 347 -677 229 -231 524 -354 895 -372 397 -19 757 114
1016 374 305 307 437 766 358 1248 -76 468 -363 836 -779 996 -160 62 -268 81
-495 85 -147 2 -228 -1 -285 -11z m381 -146 c696 -77 1096 -686 967 -1469 -92
-561 -519 -920 -1094 -920 -417 0 -762 185 -962 518 -59 97 -89 170 -122 293
-64 244 -60 562 10 802 152 524 639 839 1201 776z"/>
<path d="M39535 3255 c-557 -98 -958 -501 -1062 -1068 -27 -143 -24 -429 5
-575 56 -277 168 -497 347 -677 229 -231 524 -354 895 -372 397 -19 757 114
1016 374 305 307 437 766 358 1248 -76 468 -363 836 -779 996 -160 62 -268 81
-495 85 -147 2 -228 -1 -285 -11z m392 -145 c691 -87 1085 -692 956 -1470 -92
-561 -519 -920 -1094 -920 -477 0 -866 249 -1035 663 -67 166 -94 316 -94 536
0 283 66 524 201 731 57 86 196 225 288 285 217 142 510 208 778 175z"/>
<path d="M410 1916 l0 -1306 100 0 100 0 0 566 0 566 23 -6 c12 -4 121 -10
242 -13 429 -12 737 41 987 169 171 87 284 212 341 378 26 73 31 104 35 215 3
97 0 147 -12 198 -53 225 -224 384 -507 471 -182 56 -213 58 -781 63 l-528 5
0 -1306z m995 1133 c286 -35 498 -140 578 -287 54 -100 72 -263 42 -390 -23
-98 -70 -179 -146 -254 -120 -119 -305 -190 -578 -224 -141 -17 -421 -22 -583
-10 l-108 8 0 584 0 584 353 0 c194 0 392 -5 442 -11z"/>
<path d="M10800 1916 l0 -1306 100 0 100 0 0 575 0 575 248 0 247 -1 216 -242
c119 -133 350 -392 513 -575 l297 -332 120 0 119 0 -387 438 c-213 240 -446
502 -517 582 l-129 145 98 12 c205 26 353 82 488 184 122 92 215 232 254 379
21 81 23 263 4 340 -63 258 -267 417 -641 501 -89 20 -130 22 -612 26 l-518 5
0 -1306z m802 1144 c235 -16 397 -51 534 -116 165 -78 244 -212 244 -415 0
-122 -13 -184 -55 -274 -73 -154 -227 -251 -485 -307 -83 -18 -141 -21 -467
-25 l-373 -5 0 571 0 570 43 4 c91 8 420 6 559 -3z"/>
<path d="M15380 3140 l0 -80 505 0 505 0 0 -1225 0 -1225 95 0 95 0 0 1225 0
1225 510 0 510 0 0 80 0 80 -1110 0 -1110 0 0 -80z"/>
<path d="M20450 1915 l0 -1305 101 0 102 0 -3 433 c-2 237 -3 523 -2 635 l2
202 660 0 660 0 0 75 0 75 -660 0 -660 0 0 515 0 515 723 2 722 3 3 78 3 77
-826 0 -825 0 0 -1305z"/>
<path d="M30600 1915 l0 -1305 840 0 840 0 0 80 0 80 -739 0 -739 0 -7 532
c-3 293 -5 845 -3 1226 l3 692 -97 0 -98 0 0 -1305z"/>
<path d="M35220 1915 l0 -1305 100 0 100 0 0 1305 0 1305 -100 0 -100 0 0
-1305z"/>
<path d="M47370 1915 l0 -1305 102 0 101 0 -6 843 c-5 710 -16 1257 -30 1545
-2 34 0 62 4 62 14 0 439 -863 810 -1642 l384 -808 95 0 95 0 379 818 c373
803 777 1632 796 1632 5 0 7 -21 4 -47 -14 -152 -24 -762 -24 -1528 l0 -875
95 0 95 0 0 1305 0 1305 -154 0 -153 0 -563 -1197 c-310 -659 -566 -1202 -570
-1206 -4 -4 -63 117 -133 270 -69 153 -327 695 -574 1205 l-448 927 -152 1
-153 0 0 -1305z"/>
<path d="M53400 1915 l0 -1305 102 0 101 0 -6 843 c-5 710 -16 1257 -30 1545
-2 34 0 62 4 62 14 0 439 -863 810 -1642 l384 -808 95 0 95 0 379 818 c373
803 777 1632 796 1632 5 0 7 -21 4 -47 -14 -152 -24 -762 -24 -1528 l0 -875
95 0 95 0 0 1305 0 1305 -154 0 -153 0 -563 -1197 c-310 -659 -566 -1202 -570
-1206 -4 -4 -63 117 -133 270 -69 153 -327 695 -574 1205 l-448 927 -152 1
-153 0 0 -1305z"/>
<path d="M59166 3208 c5 -7 215 -289 467 -627 252 -338 461 -619 463 -625 2
-6 -225 -309 -506 -674 -280 -365 -510 -665 -510 -667 0 -3 48 -5 108 -4 l107
0 290 377 c455 591 645 832 655 832 14 0 139 -159 563 -715 l374 -490 113 -3
112 -3 -29 38 c-239 307 -976 1280 -976 1288 0 8 836 1132 946 1273 7 9 -14
12 -100 12 l-110 0 -359 -482 c-333 -448 -504 -669 -524 -676 -13 -5 -162 190
-529 691 l-342 467 -110 0 c-86 0 -108 -3 -103 -12z"/>
<path d="M63926 3208 c5 -7 215 -289 467 -627 252 -338 461 -619 463 -625 2
-6 -225 -309 -506 -674 -280 -365 -510 -665 -510 -667 0 -3 48 -5 108 -4 l107
0 290 377 c455 591 645 832 655 832 14 0 139 -159 563 -715 l374 -490 113 -3
112 -3 -29 38 c-239 307 -976 1280 -976 1288 0 8 836 1132 946 1273 7 9 -14
12 -100 12 l-110 0 -359 -482 c-333 -448 -504 -669 -524 -676 -13 -5 -162 190
-529 691 l-342 467 -110 0 c-86 0 -108 -3 -103 -12z"/>
<path d="M68690 3214 c0 -3 239 -590 531 -1305 l532 -1300 109 3 109 3 524
1285 c289 707 528 1293 531 1303 5 15 -4 17 -93 17 l-98 0 -382 -948 c-407
-1007 -447 -1107 -527 -1327 -28 -77 -55 -142 -60 -143 -5 -2 -31 57 -58 130
-61 163 -385 969 -694 1725 l-229 563 -97 0 c-54 0 -98 -2 -98 -6z"/>
<path d="M73900 1915 l0 -1305 100 0 100 0 0 1305 0 1305 -100 0 -100 0 0
-1305z"/>
</g>
</svg>
