<svg version="1.1" id="Layer_1" xmlns="http://www.w3.org/2000/svg" xmlns:xlink="http://www.w3.org/1999/xlink" x="0px" y="0px"
	 width="100%" viewBox="0 0 2080 1859" enable-background="new 0 0 2080 1859" xml:space="preserve">
<path fill="#FFFFFF" opacity="1.000000" stroke="none" 
	d="
M1.000000,647.000000 
	C1.000000,431.333344 1.000000,216.166672 1.000000,1.000000 
	C694.333313,1.000000 1387.666626,1.000000 2081.000000,1.000000 
	C2081.000000,620.666687 2081.000000,1240.333374 2081.000000,1860.000000 
	C1387.666626,1860.000000 694.333313,1860.000000 1.000000,1860.000000 
	C1.000000,1455.833374 1.000000,1051.666626 1.000000,647.000000 
M2013.531616,1788.920410 
	C2013.610352,1788.605835 2013.689087,1788.291382 2013.890625,1787.049683 
	C2013.894409,1785.050171 2013.901367,1783.050781 2013.901367,1781.051270 
	C2013.901855,1213.039673 2013.901978,645.028015 2013.896484,77.016411 
	C2013.896484,73.686813 2013.815918,70.357224 2013.924683,66.479454 
	C2013.608398,66.397072 2013.292236,66.314697 2012.209717,66.069481 
	C1992.329834,58.335720 1971.238281,57.045143 1950.380005,55.369736 
	C1935.379639,54.164867 1920.196655,55.234951 1904.228516,55.015026 
	C1903.895264,55.010162 1903.561890,55.001034 1903.228638,55.001034 
	C1330.944458,55.000305 758.660217,54.999973 186.376022,55.011005 
	C184.888184,55.011036 183.400360,55.177391 181.088226,55.073868 
	C174.359955,54.091599 167.651764,52.453770 160.899734,52.247002 
	C138.465210,51.559982 116.024849,51.827103 93.884102,56.168198 
	C82.269852,58.445389 70.703255,61.065758 60.261082,66.492645 
	C60.261082,640.823059 60.261082,1214.776123 60.261082,1788.876465 
	C100.646912,1788.876465 140.771866,1788.876465 181.842651,1788.975342 
	C455.587006,1788.983521 729.331360,1788.992432 1003.075745,1788.979126 
	C1004.368530,1788.979126 1005.661377,1788.662354 1007.786621,1788.494873 
	C1038.424805,1788.495605 1069.063110,1788.496338 1100.604126,1788.895264 
	C1102.102051,1788.930176 1103.599976,1788.995728 1105.097900,1788.995728 
	C1364.789795,1789.000244 1624.481567,1789.000366 1884.173462,1788.991821 
	C1885.834717,1788.991821 1887.495972,1788.869263 1890.064453,1788.951416 
	C1931.034912,1788.913086 1972.005493,1788.874756 2013.531616,1788.920410 
z"/>
<path fill="#454545" opacity="1.000000" stroke="none" 
	d="
M181.912521,55.266060 
	C183.400360,55.177391 184.888184,55.011036 186.376022,55.011005 
	C758.660217,54.999973 1330.944458,55.000305 1903.228638,55.001034 
	C1903.561890,55.001034 1903.895264,55.010162 1904.590576,55.521675 
	C1903.393555,56.388943 1901.666748,56.442200 1900.313477,57.180256 
	C1898.134277,58.368954 1895.366821,59.556320 1894.295410,61.530003 
	C1884.936768,78.770912 1875.908325,96.191071 1866.765625,113.549400 
	C1847.396606,150.323486 1828.014282,187.090454 1808.644043,223.863846 
	C1785.166626,268.434296 1761.694092,313.007324 1738.223389,357.581207 
	C1718.703369,394.652374 1699.187134,431.725464 1679.672607,468.799500 
	C1659.460693,507.198456 1639.256958,545.601746 1619.042358,583.999268 
	C1599.137451,621.808960 1579.222168,659.613159 1559.313354,697.420837 
	C1536.384155,740.963989 1513.457031,784.508179 1490.529541,828.052185 
	C1470.467651,866.153809 1450.405518,904.255310 1430.345215,942.357666 
	C1407.418335,985.904602 1384.492310,1029.452148 1361.567017,1072.999878 
	C1341.508423,1111.102173 1321.454590,1149.206909 1301.392578,1187.307495 
	C1278.464233,1230.851685 1255.521729,1274.388428 1232.599243,1317.935791 
	C1208.591675,1363.545044 1184.584351,1409.154419 1160.608887,1454.780396 
	C1148.621948,1477.591675 1137.031250,1500.617920 1124.685181,1523.232422 
	C1104.118164,1560.905640 1085.423584,1599.483887 1067.584473,1638.498291 
	C1065.217651,1643.674316 1062.558960,1648.716919 1059.546021,1654.811157 
	C1054.328613,1643.179932 1049.706665,1632.727661 1044.961548,1622.331787 
	C1036.958740,1604.798584 1029.647949,1586.893799 1020.656555,1569.879883 
	C1005.519409,1541.236816 989.255615,1513.190430 973.536865,1484.853638 
	C955.639221,1452.588867 937.839478,1420.269775 919.960571,1387.994629 
	C898.137695,1348.599609 876.288574,1309.219482 854.428894,1269.844971 
	C834.826477,1234.536743 815.166504,1199.260376 795.583252,1163.941406 
	C776.000854,1128.624268 756.510559,1093.255981 736.927429,1057.939087 
	C717.505127,1022.912476 697.989624,987.937378 678.566589,952.911011 
	C660.674316,920.645142 642.866211,888.332458 624.992737,856.056091 
	C602.933411,816.220520 580.867432,776.388672 558.762207,736.578552 
	C539.561340,701.998901 520.265625,667.471802 501.078827,632.884338 
	C483.020111,600.330383 465.082062,567.709595 447.030487,535.151672 
	C425.916809,497.070984 404.712158,459.040741 383.594849,420.962067 
	C365.701813,388.697449 347.895264,356.384857 330.017334,324.111816 
	C308.032318,284.424744 286.026154,244.749329 264.005005,205.082275 
	C239.482483,160.909485 214.901871,116.768883 190.433563,72.566101 
	C187.323944,66.948471 184.740005,61.039864 181.912521,55.266060 
z"/>
<path fill="#000000" opacity="1.000000" stroke="none" 
	d="
M181.500366,55.169964 
	C184.740005,61.039864 187.323944,66.948471 190.433563,72.566101 
	C214.901871,116.768883 239.482483,160.909485 264.005005,205.082275 
	C286.026154,244.749329 308.032318,284.424744 330.017334,324.111816 
	C347.895264,356.384857 365.701813,388.697449 383.594849,420.962067 
	C404.712158,459.040741 425.916809,497.070984 447.030487,535.151672 
	C465.082062,567.709595 483.020111,600.330383 501.078827,632.884338 
	C520.265625,667.471802 539.561340,701.998901 558.762207,736.578552 
	C580.867432,776.388672 602.933411,816.220520 624.992737,856.056091 
	C642.866211,888.332458 660.674316,920.645142 678.566589,952.911011 
	C697.989624,987.937378 717.505127,1022.912476 736.927429,1057.939087 
	C756.510559,1093.255981 776.000854,1128.624268 795.583252,1163.941406 
	C815.166504,1199.260376 834.826477,1234.536743 854.428894,1269.844971 
	C876.288574,1309.219482 898.137695,1348.599609 919.960571,1387.994629 
	C937.839478,1420.269775 955.639221,1452.588867 973.536865,1484.853638 
	C989.255615,1513.190430 1005.519409,1541.236816 1020.656555,1569.879883 
	C1029.647949,1586.893799 1036.958740,1604.798584 1044.961548,1622.331787 
	C1049.706665,1632.727661 1054.328613,1643.179932 1059.546021,1654.811157 
	C1062.558960,1648.716919 1065.217651,1643.674316 1067.584473,1638.498291 
	C1085.423584,1599.483887 1104.118164,1560.905640 1124.685181,1523.232422 
	C1137.031250,1500.617920 1148.621948,1477.591675 1160.608887,1454.780396 
	C1184.584351,1409.154419 1208.591675,1363.545044 1232.599243,1317.935791 
	C1255.521729,1274.388428 1278.464233,1230.851685 1301.392578,1187.307495 
	C1321.454590,1149.206909 1341.508423,1111.102173 1361.567017,1072.999878 
	C1384.492310,1029.452148 1407.418335,985.904602 1430.345215,942.357666 
	C1450.405518,904.255310 1470.467651,866.153809 1490.529541,828.052185 
	C1513.457031,784.508179 1536.384155,740.963989 1559.313354,697.420837 
	C1579.222168,659.613159 1599.137451,621.808960 1619.042358,583.999268 
	C1639.256958,545.601746 1659.460693,507.198456 1679.672607,468.799500 
	C1699.187134,431.725464 1718.703369,394.652374 1738.223389,357.581207 
	C1761.694092,313.007324 1785.166626,268.434296 1808.644043,223.863846 
	C1828.014282,187.090454 1847.396606,150.323486 1866.765625,113.549400 
	C1875.908325,96.191071 1884.936768,78.770912 1894.295410,61.530003 
	C1895.366821,59.556320 1898.134277,58.368954 1900.313477,57.180256 
	C1901.666748,56.442200 1903.393555,56.388943 1905.023926,55.659279 
	C1920.196655,55.234951 1935.379639,54.164867 1950.380005,55.369736 
	C1971.238281,57.045143 1992.329834,58.335720 2012.650513,66.346138 
	C2013.253784,66.866829 2013.480957,67.001770 2013.772949,67.027626 
	C2013.815918,70.357224 2013.896484,73.686813 2013.896484,77.016411 
	C2013.901978,645.028015 2013.901855,1213.039673 2013.901367,1781.051270 
	C2013.901367,1783.050781 2013.894409,1785.050171 2013.637695,1787.590332 
	C2013.172607,1788.322144 2013.036377,1788.557251 2012.975952,1788.836304 
	C1972.005493,1788.874756 1931.034912,1788.913086 1889.633301,1788.421997 
	C1889.203735,1343.126831 1889.194214,898.361145 1889.244019,453.595459 
	C1889.246216,434.004486 1889.628174,414.409363 1890.140381,394.824188 
	C1890.468384,382.280304 1891.443237,369.754669 1891.981445,357.214569 
	C1892.726562,339.852814 1893.314209,322.484344 1894.026611,305.121094 
	C1894.106689,303.169678 1894.737671,301.239288 1894.800415,299.289093 
	C1894.927002,295.359955 1894.838257,291.423889 1894.838257,287.490662 
	C1891.876587,291.968048 1889.855347,296.471008 1887.941772,301.019226 
	C1880.025879,319.832428 1873.160278,339.169708 1864.030762,357.372528 
	C1846.215332,392.893646 1827.132812,427.779053 1808.588867,462.935059 
	C1774.761108,527.066711 1740.965942,591.215576 1707.116577,655.335876 
	C1655.482910,753.145142 1603.798096,850.927307 1552.166626,948.737732 
	C1512.580811,1023.728821 1473.043457,1098.745361 1433.486206,1173.751587 
	C1421.031128,1197.368042 1408.589844,1220.991699 1396.128418,1244.604858 
	C1383.198975,1269.104980 1370.247070,1293.593262 1357.315918,1318.092407 
	C1344.928833,1341.560791 1332.561768,1365.039673 1320.174683,1388.507812 
	C1307.244385,1413.004883 1294.305176,1437.497070 1281.361572,1461.986938 
	C1267.002319,1489.155640 1252.614624,1516.309082 1238.272949,1543.487061 
	C1196.273071,1623.077026 1154.268677,1702.664551 1112.366699,1782.306030 
	C1110.407715,1786.029175 1107.412598,1786.603882 1103.904785,1787.045776 
	C1102.465454,1787.226929 1101.100220,1787.995483 1099.701294,1788.496948 
	C1069.063110,1788.496338 1038.424805,1788.495605 1007.319702,1788.072388 
	C1003.801331,1786.209595 999.259277,1785.602661 997.919006,1783.205444 
	C972.026733,1736.895874 946.540405,1690.359253 920.908081,1643.903931 
	C870.048828,1551.727783 819.139954,1459.578857 768.273682,1367.406494 
	C718.928406,1277.990356 669.617859,1188.555176 620.278687,1099.135620 
	C576.246033,1019.333374 532.187927,939.545166 488.153900,859.743652 
	C442.676422,777.326172 397.218384,694.897949 351.744232,612.478638 
	C318.881836,552.917358 285.984314,493.375519 253.145325,433.801361 
	C228.183167,388.516785 201.811569,343.940521 183.368393,295.365570 
	C182.002914,291.769196 180.284348,288.306854 178.729935,284.782196 
	C178.079941,288.032318 178.018066,291.014648 178.089279,293.993866 
	C179.048691,334.131866 180.855576,374.269012 180.873184,414.407104 
	C181.073013,870.231445 181.000183,1326.056030 180.995758,1781.880493 
	C180.995728,1784.212524 180.931213,1786.544434 180.896820,1788.876465 
	C140.771866,1788.876465 100.646912,1788.876465 60.261082,1788.876465 
	C60.261082,1214.776123 60.261082,640.823059 60.261082,66.492645 
	C70.703255,61.065758 82.269852,58.445389 93.884102,56.168198 
	C116.024849,51.827103 138.465210,51.559982 160.899734,52.247002 
	C167.651764,52.453770 174.359955,54.091599 181.500366,55.169964 
z"/>
<path fill="#808080" opacity="1.000000" stroke="none" 
	d="
M181.369736,1788.925903 
	C180.931213,1786.544434 180.995728,1784.212524 180.995758,1781.880493 
	C181.000183,1326.056030 181.073013,870.231445 180.873184,414.407104 
	C180.855576,374.269012 179.048691,334.131866 178.089279,293.993866 
	C178.018066,291.014648 178.079941,288.032318 178.729935,284.782196 
	C180.284348,288.306854 182.002914,291.769196 183.368393,295.365570 
	C201.811569,343.940521 228.183167,388.516785 253.145325,433.801361 
	C285.984314,493.375519 318.881836,552.917358 351.744232,612.478638 
	C397.218384,694.897949 442.676422,777.326172 488.153900,859.743652 
	C532.187927,939.545166 576.246033,1019.333374 620.278687,1099.135620 
	C669.617859,1188.555176 718.928406,1277.990356 768.273682,1367.406494 
	C819.139954,1459.578857 870.048828,1551.727783 920.908081,1643.903931 
	C946.540405,1690.359253 972.026733,1736.895874 997.919006,1783.205444 
	C999.259277,1785.602661 1003.801331,1786.209595 1006.903442,1788.071655 
	C1005.661377,1788.662354 1004.368530,1788.979126 1003.075745,1788.979126 
	C729.331360,1788.992432 455.587006,1788.983521 181.369736,1788.925903 
z"/>
<path fill="#808080" opacity="1.000000" stroke="none" 
	d="
M1100.152710,1788.696045 
	C1101.100220,1787.995483 1102.465454,1787.226929 1103.904785,1787.045776 
	C1107.412598,1786.603882 1110.407715,1786.029175 1112.366699,1782.306030 
	C1154.268677,1702.664551 1196.273071,1623.077026 1238.272949,1543.487061 
	C1252.614624,1516.309082 1267.002319,1489.155640 1281.361572,1461.986938 
	C1294.305176,1437.497070 1307.244385,1413.004883 1320.174683,1388.507812 
	C1332.561768,1365.039673 1344.928833,1341.560791 1357.315918,1318.092407 
	C1370.247070,1293.593262 1383.198975,1269.104980 1396.128418,1244.604858 
	C1408.589844,1220.991699 1421.031128,1197.368042 1433.486206,1173.751587 
	C1473.043457,1098.745361 1512.580811,1023.728821 1552.166626,948.737732 
	C1603.798096,850.927307 1655.482910,753.145142 1707.116577,655.335876 
	C1740.965942,591.215576 1774.761108,527.066711 1808.588867,462.935059 
	C1827.132812,427.779053 1846.215332,392.893646 1864.030762,357.372528 
	C1873.160278,339.169708 1880.025879,319.832428 1887.941772,301.019226 
	C1889.855347,296.471008 1891.876587,291.968048 1894.838257,287.490662 
	C1894.838257,291.423889 1894.927002,295.359955 1894.800415,299.289093 
	C1894.737671,301.239288 1894.106689,303.169678 1894.026611,305.121094 
	C1893.314209,322.484344 1892.726562,339.852814 1891.981445,357.214569 
	C1891.443237,369.754669 1890.468384,382.280304 1890.140381,394.824188 
	C1889.628174,414.409363 1889.246216,434.004486 1889.244019,453.595459 
	C1889.194214,898.361145 1889.203735,1343.126831 1889.179688,1788.348145 
	C1887.495972,1788.869263 1885.834717,1788.991821 1884.173462,1788.991821 
	C1624.481567,1789.000366 1364.789795,1789.000244 1105.097900,1788.995728 
	C1103.599976,1788.995728 1102.102051,1788.930176 1100.152710,1788.696045 
z"/>
<path fill="#2A2A2A" opacity="1.000000" stroke="none" 
	d="
M2013.848877,66.753540 
	C2013.480957,67.001770 2013.253784,66.866829 2013.033691,66.427551 
	C2013.292236,66.314697 2013.608398,66.397072 2013.848877,66.753540 
z"/>
<path fill="#2A2A2A" opacity="1.000000" stroke="none" 
	d="
M2013.253784,1788.878418 
	C2013.036377,1788.557251 2013.172607,1788.322144 2013.576172,1788.053833 
	C2013.689087,1788.291382 2013.610352,1788.605835 2013.253784,1788.878418 
z"/>
</svg>